<mxfile host="app.diagrams.net" agent="Mozilla/5.0 (X11; Linux x86_64) AppleWebKit/537.36 (KHTML, like Gecko) Chrome/134.0.0.0 Safari/537.36" version="26.1.0">
  <diagram name="第 1 页" id="vnOvTNoHZiRQUDV2nkp7">
    <mxGraphModel dx="2074" dy="1147" grid="1" gridSize="10" guides="1" tooltips="1" connect="1" arrows="1" fold="1" page="1" pageScale="1" pageWidth="827" pageHeight="1169" math="0" shadow="0">
      <root>
        <mxCell id="0" />
        <mxCell id="1" parent="0" />
        <mxCell id="6KNllE35IhvV4aIikwxA-1" value="&lt;font style=&quot;font-size: 15px;&quot;&gt;&lt;i&gt;&lt;b&gt;host 0&lt;/b&gt;&lt;/i&gt;&lt;/font&gt;" style="ellipse;whiteSpace=wrap;html=1;aspect=fixed;" parent="1" vertex="1">
          <mxGeometry x="180" y="260" width="110" height="110" as="geometry" />
        </mxCell>
        <mxCell id="6KNllE35IhvV4aIikwxA-2" value="&lt;font style=&quot;font-size: 15px;&quot;&gt;&lt;i&gt;&lt;b&gt;host 1&lt;/b&gt;&lt;/i&gt;&lt;/font&gt;" style="ellipse;whiteSpace=wrap;html=1;aspect=fixed;" parent="1" vertex="1">
          <mxGeometry x="510" y="260" width="110" height="110" as="geometry" />
        </mxCell>
        <mxCell id="6KNllE35IhvV4aIikwxA-3" value="&lt;font style=&quot;font-size: 15px;&quot;&gt;&lt;i&gt;&lt;b&gt;host 2&lt;/b&gt;&lt;/i&gt;&lt;/font&gt;" style="ellipse;whiteSpace=wrap;html=1;aspect=fixed;" parent="1" vertex="1">
          <mxGeometry x="180" y="550" width="110" height="110" as="geometry" />
        </mxCell>
        <mxCell id="6KNllE35IhvV4aIikwxA-5" value="client" style="verticalLabelPosition=bottom;verticalAlign=top;html=1;shape=mxgraph.basic.rect;fillColor2=none;strokeWidth=1;size=0;indent=5;fillColor=#dae8fc;strokeColor=#6c8ebf;" parent="1" vertex="1">
          <mxGeometry x="220" y="360" width="30" height="30" as="geometry" />
        </mxCell>
        <mxCell id="6KNllE35IhvV4aIikwxA-6" value="" style="verticalLabelPosition=bottom;verticalAlign=top;html=1;shape=mxgraph.basic.rect;fillColor2=none;strokeWidth=1;size=0;indent=5;fillColor=#dae8fc;strokeColor=#6c8ebf;" parent="1" vertex="1">
          <mxGeometry x="280" y="300" width="30" height="30" as="geometry" />
        </mxCell>
        <mxCell id="6KNllE35IhvV4aIikwxA-7" value="" style="verticalLabelPosition=bottom;verticalAlign=top;html=1;shape=mxgraph.basic.rect;fillColor2=none;strokeWidth=1;size=0;indent=5;fillColor=#dae8fc;strokeColor=#6c8ebf;" parent="1" vertex="1">
          <mxGeometry x="220" y="240" width="30" height="30" as="geometry" />
        </mxCell>
        <mxCell id="6KNllE35IhvV4aIikwxA-8" value="" style="verticalLabelPosition=bottom;verticalAlign=top;html=1;shape=mxgraph.basic.rect;fillColor2=none;strokeWidth=1;size=0;indent=5;fillColor=#f8cecc;strokeColor=#b85450;" parent="1" vertex="1">
          <mxGeometry x="550" y="240" width="30" height="30" as="geometry" />
        </mxCell>
        <mxCell id="6KNllE35IhvV4aIikwxA-9" value="" style="verticalLabelPosition=bottom;verticalAlign=top;html=1;shape=mxgraph.basic.rect;fillColor2=none;strokeWidth=1;size=0;indent=5;fillColor=#dae8fc;strokeColor=#6c8ebf;" parent="1" vertex="1">
          <mxGeometry x="550" y="360" width="30" height="30" as="geometry" />
        </mxCell>
        <mxCell id="6KNllE35IhvV4aIikwxA-10" value="" style="verticalLabelPosition=bottom;verticalAlign=top;html=1;shape=mxgraph.basic.rect;fillColor2=none;strokeWidth=1;size=0;indent=5;fillColor=#f8cecc;strokeColor=#b85450;" parent="1" vertex="1">
          <mxGeometry x="220" y="530" width="30" height="30" as="geometry" />
        </mxCell>
        <mxCell id="6KNllE35IhvV4aIikwxA-11" value="client" style="text;html=1;align=center;verticalAlign=middle;resizable=0;points=[];autosize=1;strokeColor=none;fillColor=none;" parent="1" vertex="1">
          <mxGeometry x="210" y="210" width="50" height="30" as="geometry" />
        </mxCell>
        <mxCell id="6KNllE35IhvV4aIikwxA-12" value="client" style="text;html=1;align=center;verticalAlign=middle;resizable=0;points=[];autosize=1;strokeColor=none;fillColor=none;" parent="1" vertex="1">
          <mxGeometry x="285" y="270" width="50" height="30" as="geometry" />
        </mxCell>
        <mxCell id="6KNllE35IhvV4aIikwxA-13" value="" style="endArrow=classic;html=1;rounded=0;dashed=1;exitX=1.067;exitY=1.033;exitDx=0;exitDy=0;exitPerimeter=0;entryX=0.028;entryY=0.944;entryDx=0;entryDy=0;entryPerimeter=0;" parent="1" source="6KNllE35IhvV4aIikwxA-11" target="6KNllE35IhvV4aIikwxA-14" edge="1">
          <mxGeometry width="50" height="50" relative="1" as="geometry">
            <mxPoint x="390" y="490" as="sourcePoint" />
            <mxPoint x="530" y="240" as="targetPoint" />
          </mxGeometry>
        </mxCell>
        <mxCell id="6KNllE35IhvV4aIikwxA-14" value="server" style="text;html=1;align=center;verticalAlign=middle;resizable=0;points=[];autosize=1;strokeColor=none;fillColor=none;" parent="1" vertex="1">
          <mxGeometry x="535" y="210" width="60" height="30" as="geometry" />
        </mxCell>
        <mxCell id="6KNllE35IhvV4aIikwxA-15" value="" style="endArrow=classic;html=1;rounded=0;dashed=1;" parent="1" edge="1">
          <mxGeometry width="50" height="50" relative="1" as="geometry">
            <mxPoint x="240" y="420" as="sourcePoint" />
            <mxPoint x="240" y="520" as="targetPoint" />
          </mxGeometry>
        </mxCell>
        <mxCell id="6KNllE35IhvV4aIikwxA-16" value="server" style="text;html=1;align=center;verticalAlign=middle;resizable=0;points=[];autosize=1;strokeColor=none;fillColor=none;" parent="1" vertex="1">
          <mxGeometry x="240" y="530" width="60" height="30" as="geometry" />
        </mxCell>
        <mxCell id="6KNllE35IhvV4aIikwxA-17" value="&lt;font style=&quot;font-size: 15px;&quot;&gt;&lt;i&gt;&lt;b&gt;host 3&lt;/b&gt;&lt;/i&gt;&lt;/font&gt;" style="ellipse;whiteSpace=wrap;html=1;aspect=fixed;" parent="1" vertex="1">
          <mxGeometry x="510" y="550" width="110" height="110" as="geometry" />
        </mxCell>
        <mxCell id="6KNllE35IhvV4aIikwxA-18" value="" style="verticalLabelPosition=bottom;verticalAlign=top;html=1;shape=mxgraph.basic.rect;fillColor2=none;strokeWidth=1;size=0;indent=5;fillColor=#dae8fc;strokeColor=#6c8ebf;" parent="1" vertex="1">
          <mxGeometry x="490" y="300" width="30" height="30" as="geometry" />
        </mxCell>
        <mxCell id="6KNllE35IhvV4aIikwxA-22" value="client" style="text;html=1;align=center;verticalAlign=middle;resizable=0;points=[];autosize=1;strokeColor=none;fillColor=none;" parent="1" vertex="1">
          <mxGeometry x="540" y="390" width="50" height="30" as="geometry" />
        </mxCell>
        <mxCell id="6KNllE35IhvV4aIikwxA-23" value="" style="verticalLabelPosition=bottom;verticalAlign=top;html=1;shape=mxgraph.basic.rect;fillColor2=none;strokeWidth=1;size=0;indent=5;fillColor=#dae8fc;strokeColor=#6c8ebf;" parent="1" vertex="1">
          <mxGeometry x="280" y="590" width="30" height="30" as="geometry" />
        </mxCell>
        <mxCell id="6KNllE35IhvV4aIikwxA-24" value="client" style="text;html=1;align=center;verticalAlign=middle;resizable=0;points=[];autosize=1;strokeColor=none;fillColor=none;" parent="1" vertex="1">
          <mxGeometry x="280" y="560" width="50" height="30" as="geometry" />
        </mxCell>
        <mxCell id="6KNllE35IhvV4aIikwxA-25" value="" style="verticalLabelPosition=bottom;verticalAlign=top;html=1;shape=mxgraph.basic.rect;fillColor2=none;strokeWidth=1;size=0;indent=5;fillColor=#f8cecc;strokeColor=#b85450;" parent="1" vertex="1">
          <mxGeometry x="550" y="530" width="30" height="30" as="geometry" />
        </mxCell>
        <mxCell id="6KNllE35IhvV4aIikwxA-26" value="server" style="text;html=1;align=center;verticalAlign=middle;resizable=0;points=[];autosize=1;strokeColor=none;fillColor=none;" parent="1" vertex="1">
          <mxGeometry x="570" y="530" width="60" height="30" as="geometry" />
        </mxCell>
        <mxCell id="6KNllE35IhvV4aIikwxA-27" value="" style="endArrow=classic;html=1;rounded=0;dashed=1;" parent="1" edge="1">
          <mxGeometry width="50" height="50" relative="1" as="geometry">
            <mxPoint x="320" y="330" as="sourcePoint" />
            <mxPoint x="540" y="530" as="targetPoint" />
          </mxGeometry>
        </mxCell>
        <mxCell id="6KNllE35IhvV4aIikwxA-29" value="" style="endArrow=classic;html=1;rounded=0;dashed=1;" parent="1" edge="1">
          <mxGeometry width="50" height="50" relative="1" as="geometry">
            <mxPoint x="320" y="600" as="sourcePoint" />
            <mxPoint x="540" y="540" as="targetPoint" />
          </mxGeometry>
        </mxCell>
        <mxCell id="6KNllE35IhvV4aIikwxA-30" value="" style="endArrow=classic;html=1;rounded=0;dashed=1;entryX=0.411;entryY=-0.078;entryDx=0;entryDy=0;entryPerimeter=0;" parent="1" target="6KNllE35IhvV4aIikwxA-16" edge="1">
          <mxGeometry width="50" height="50" relative="1" as="geometry">
            <mxPoint x="480" y="340" as="sourcePoint" />
            <mxPoint x="490" y="590" as="targetPoint" />
          </mxGeometry>
        </mxCell>
        <mxCell id="3" value="client" style="text;html=1;align=center;verticalAlign=middle;resizable=0;points=[];autosize=1;strokeColor=none;fillColor=none;" parent="1" vertex="1">
          <mxGeometry x="465" y="270" width="50" height="30" as="geometry" />
        </mxCell>
        <mxCell id="4" value="" style="endArrow=classic;html=1;rounded=0;dashed=1;exitX=0.467;exitY=1.122;exitDx=0;exitDy=0;exitPerimeter=0;" parent="1" source="6KNllE35IhvV4aIikwxA-22" edge="1">
          <mxGeometry width="50" height="50" relative="1" as="geometry">
            <mxPoint x="330" y="610" as="sourcePoint" />
            <mxPoint x="563" y="520" as="targetPoint" />
          </mxGeometry>
        </mxCell>
      </root>
    </mxGraphModel>
  </diagram>
</mxfile>
